<?xml version="1.0" encoding="utf-8"?>
<!-- Generator: Adobe Illustrator 24.0.2, SVG Export Plug-In . SVG Version: 6.00 Build 0)  -->
<svg version="1.1" id="Layer_1" xmlns="http://www.w3.org/2000/svg" xmlns:xlink="http://www.w3.org/1999/xlink" x="0px" y="0px"
	 viewBox="0 0 48 48" style="enable-background:new 0 0 48 48;" xml:space="preserve">
<style type="text/css">
	.st0{fill:#FFFFFF;}
</style>
<path class="st0" d="M24.1,42c-0.4,0-0.8-0.1-1.1-0.4s-0.4-0.6-0.4-1.1v-2.7c-1.6-0.3-3-0.8-4.1-1.7c-1.1-0.9-2-2-2.7-3.3
	c-0.2-0.4-0.2-0.8,0-1.1s0.4-0.7,0.8-0.8c0.4-0.2,0.7-0.2,1.1,0c0.4,0.2,0.7,0.4,0.9,0.8c0.6,1.1,1.4,2,2.4,2.6s2.1,0.8,3.4,0.8
	c1.6,0,2.9-0.4,4-1.2c1-0.8,1.5-1.9,1.5-3.3c0-1.5-0.5-2.6-1.4-3.4s-2.6-1.6-5.2-2.5c-2.4-0.8-4.2-1.8-5.4-3
	c-1.2-1.3-1.8-2.9-1.8-4.8c0-1.8,0.6-3.4,1.8-4.6c1.2-1.2,2.7-1.9,4.6-2.1V7.5c0-0.4,0.1-0.8,0.4-1.1C23.3,6.1,23.6,6,24.1,6
	c0.4,0,0.8,0.1,1.1,0.4c0.3,0.3,0.4,0.6,0.4,1.1v2.6c1.2,0.2,2.3,0.5,3.2,1.1c1,0.6,1.7,1.3,2.4,2.2c0.2,0.3,0.3,0.7,0.2,1.1
	c-0.1,0.4-0.4,0.7-0.8,0.8c-0.4,0.2-0.8,0.2-1.1,0.1c-0.4-0.1-0.7-0.4-1-0.8c-0.5-0.6-1-1-1.7-1.3s-1.5-0.4-2.5-0.4
	c-1.5,0-2.8,0.4-3.6,1.1c-0.9,0.7-1.4,1.7-1.4,2.8c0,1.3,0.5,2.3,1.5,3.1s2.9,1.6,5.6,2.4c2.3,0.7,3.9,1.7,5,3s1.6,3,1.6,5
	c0,2.1-0.6,3.8-1.9,5.1c-1.2,1.3-3,2.1-5.4,2.5v2.6c0,0.4-0.1,0.8-0.4,1.1S24.5,42,24.1,42z"/>
</svg>
