<?xml version="1.0" encoding="utf-8"?>
<!-- Generator: Adobe Illustrator 24.0.2, SVG Export Plug-In . SVG Version: 6.00 Build 0)  -->
<svg version="1.1" id="Layer_1" xmlns="http://www.w3.org/2000/svg" xmlns:xlink="http://www.w3.org/1999/xlink" x="0px" y="0px"
	 viewBox="0 0 48 48" style="enable-background:new 0 0 48 48;" xml:space="preserve">
<style type="text/css">
	.st0{fill:#76CD54;}
</style>
<path class="st0" d="M18.9,35.1c-0.2,0-0.4,0-0.5-0.1s-0.3-0.2-0.5-0.3l-9.1-9.1c-0.3-0.3-0.4-0.7-0.4-1.1s0.1-0.8,0.4-1.1
	C9.1,23.1,9.4,23,9.9,23c0.4,0,0.8,0.1,1.1,0.4l8,8L37,13.3c0.3-0.3,0.7-0.4,1.1-0.4c0.4,0,0.8,0.1,1.1,0.4s0.5,0.7,0.5,1.1
	c0,0.4-0.2,0.8-0.5,1.1L20,34.7c-0.2,0.2-0.3,0.3-0.5,0.3C19.3,35.1,19.1,35.1,18.9,35.1z"/>
</svg>
