<?xml version="1.0" encoding="utf-8"?>
<!-- Generator: Adobe Illustrator 24.0.2, SVG Export Plug-In . SVG Version: 6.00 Build 0)  -->
<svg version="1.1" id="Layer_1" xmlns="http://www.w3.org/2000/svg" xmlns:xlink="http://www.w3.org/1999/xlink" x="0px" y="0px"
	 viewBox="0 0 200 200" style="enable-background:new 0 0 200 200;" xml:space="preserve">
<style type="text/css">
	.st0{fill:#fff;}
</style>
<title>insta-icon</title>
<path class="st0" d="M103.5,199.9c-14.7,0-24.6,0.3-34.6-0.1c-8.9-0.3-17.9-0.3-26.7-2.5c-11.3-2.9-21-8.3-28.6-17.4
	c-7.3-8.9-11-19.3-12.3-30.7C0.4,140.7,0,132.1,0,123.6c0-16.9-0.1-33.8,0-50.7c-0.1-8.4,0.5-16.8,1.6-25.2C4,32.3,11,19.7,24,10.7
	c7.7-5.3,16.7-8.5,26-9.3c20.4-2.1,40.8-1.1,61.2-1.3c8.7-0.1,17.4,0,26.1,0.4c9.2,0.4,18.4,1.1,27.2,4.5
	c9.5,3.5,17.7,9.6,23.7,17.8c6.6,8.9,9.8,19.1,10.6,30c2,25.9,1,51.9,0.9,77.9c0.2,8-0.5,15.9-1.8,23.8
	c-2.3,11.5-7.1,21.7-15.8,29.9c-6.9,6.5-15.4,11-24.7,13c-5.7,1.2-11.4,1.9-17.3,2.1C126.4,200.2,112.6,199.7,103.5,199.9z
	 M181.4,100c0-12.3,0.2-24.6-0.4-36.9c-0.3-6.1-0.6-12.3-2.4-18.2c-1.7-6.1-5-11.7-9.7-16c-6.7-6.2-14.9-8.6-23.6-9.4
	c-9.4-0.9-18.8-0.9-28.2-1C101,18.4,85,18.3,68.9,18.7c-6.4,0-12.8,0.5-19.2,1.4C40.8,21.6,33,25.5,27.2,33c-5.1,6.4-7,14-7.8,22
	c-0.8,7.7-0.8,15.5-0.9,23.2c-0.2,19.4-0.3,38.9,0.3,58.3c0,5.6,0.7,11.3,1.9,16.8c1.7,7.6,5.9,14.5,12,19.4
	c5.9,4.7,12.9,6.9,20.2,7.8c7.6,0.8,15.2,1.1,22.9,1c19.9,0.1,39.8,0.3,59.6-0.3c5.1-0.1,10.2-0.5,15.2-1.4
	c7.9-1.5,15-4.6,20.5-10.7c4.8-5.3,7.4-11.5,8.7-18.4c1.6-8.2,1.4-16.5,1.6-24.8C181.6,117.3,181.4,108.7,181.4,100z"/>
<path class="st0" d="M99.7,151.4c-27.9,0.2-51.4-22.9-51.2-51.8c0.1-28.4,23.2-51.4,51.6-51.3s51.4,23.2,51.3,51.6
	C151.5,128.4,128.2,151.8,99.7,151.4z M100,133c18.2,0,33-14.8,33-33s-14.8-33-33-33s-33,14.8-33,33c0,0.1,0,0.1,0,0.2
	C67.1,118.3,81.9,133,100,133z"/>
<path class="st0" d="M165.3,46.8c0,6.7-5.4,12.1-12,12.2l0,0c-6.7,0-12.2-5.4-12.2-12.1s5.4-12.2,12.1-12.2
	c6.6-0.1,12,5.1,12.2,11.6C165.3,46.5,165.3,46.7,165.3,46.8z"/>
</svg>
