<?xml version="1.0" encoding="utf-8"?>
<!-- Generator: Adobe Illustrator 24.0.2, SVG Export Plug-In . SVG Version: 6.00 Build 0)  -->
<svg version="1.1" id="Layer_1" xmlns="http://www.w3.org/2000/svg" xmlns:xlink="http://www.w3.org/1999/xlink" x="0px" y="0px"
	 viewBox="0 0 200 200" style="enable-background:new 0 0 200 200;" xml:space="preserve">
<style type="text/css">
	.st0{fill:#fff;}
</style>
<g>
	<polygon id="XMLID_106_" class="st0" points="0.42,101.73 0.42,199.68 47.09,199.68 47.09,93.86 47.09,66.35 0.42,66.35 	"/>
	<path id="XMLID_105_" class="st0" d="M23.75-0.32c-12.89,0-23.34,10.45-23.34,23.33c0,12.89,10.45,23.33,23.34,23.33
		s23.33-10.44,23.33-23.33C47.09,10.13,36.64-0.32,23.75-0.32z"/>
	<path id="XMLID_104_" class="st0" d="M199.39,107.29c-3.16-25.13-14.7-40.94-48.68-40.94c-20.15,0-33.68,7.48-39.22,17.99h-0.58
		V66.35H73.75v25.58v107.75h38.85V133.6c0-17.43,3.29-34.3,24.85-34.3c21.24,0,22.95,19.92,22.95,35.42v64.96h40.01v-73.27h0.01
		C200.42,119.58,200.13,113.18,199.39,107.29z"/>
</g>
</svg>
