<?xml version="1.0" encoding="utf-8"?>
<!-- Generator: Adobe Illustrator 24.0.2, SVG Export Plug-In . SVG Version: 6.00 Build 0)  -->
<svg version="1.1" id="Layer_1" xmlns="http://www.w3.org/2000/svg" xmlns:xlink="http://www.w3.org/1999/xlink" x="0px" y="0px"
	 viewBox="0 0 48 48" style="enable-background:new 0 0 48 48;" xml:space="preserve">
<style type="text/css">
	.st0{fill:#FFFFFF;}
</style>
<path class="st0" d="M13.6,42V16.4L24.9,4.5c0.5-0.5,1-0.7,1.6-0.8c0.6-0.1,1.2,0,1.8,0.4c0.6,0.3,1,0.8,1.3,1.4
	c0.3,0.6,0.4,1.2,0.2,1.8l-1.9,9.1h14.9c0.8,0,1.5,0.3,2.1,0.9c0.6,0.6,0.9,1.3,0.9,2.1v4.1c0,0.2,0,0.5,0.1,0.7s0,0.5-0.1,0.7
	l-6.3,14.5c-0.3,0.7-0.8,1.3-1.5,1.8c-0.7,0.5-1.4,0.7-2.2,0.7H13.6z M16.6,17.6V39h19.9l6.3-14.9v-4.7H24.1l2.6-12.4L16.6,17.6z
	 M7,42c-0.8,0-1.5-0.3-2.1-0.9C4.2,40.5,4,39.8,4,39V19.4c0-0.8,0.3-1.5,0.9-2.1s1.3-0.9,2.1-0.9h6.7v3H7V39h6.7v3H7z M16.6,39V17.6
	V39z"/>
</svg>
