<svg id="Layer_1" data-name="Layer 1" xmlns="http://www.w3.org/2000/svg" viewBox="0 0 258.21 34.03"><defs><style>.cls-1{fill:#fec551;}</style></defs><title>star</title><path class="cls-1" d="M24,35.19l-9.3,5.6a1.45,1.45,0,0,1-.85.22,1.49,1.49,0,0,1-1.32-.92,1.43,1.43,0,0,1-.08-.9l2.45-10.6L6.7,21.44a1.36,1.36,0,0,1-.47-.78,1.88,1.88,0,0,1,0-.82,1.24,1.24,0,0,1,.45-.68,1.6,1.6,0,0,1,.85-.32l10.85-.95,4.2-10a1.38,1.38,0,0,1,.6-.68,1.56,1.56,0,0,1,1.6,0,1.38,1.38,0,0,1,.6.68l4.2,10,10.85.95a1.6,1.6,0,0,1,.85.32,1.24,1.24,0,0,1,.45.68,1.88,1.88,0,0,1,0,.82,1.38,1.38,0,0,1-.48.78l-8.2,7.15,2.45,10.6a1.51,1.51,0,0,1-.07.9,1.68,1.68,0,0,1-.53.65,1.56,1.56,0,0,1-.8.27,1.45,1.45,0,0,1-.85-.22Z" transform="translate(-6.19 -6.99)"/><path class="cls-1" d="M79.61,35.19l-9.3,5.6a1.43,1.43,0,0,1-.85.22,1.59,1.59,0,0,1-.8-.27,1.65,1.65,0,0,1-.52-.65,1.51,1.51,0,0,1-.08-.9l2.45-10.6-8.2-7.15a1.41,1.41,0,0,1-.47-.78,2.05,2.05,0,0,1,0-.82,1.24,1.24,0,0,1,.45-.68,1.63,1.63,0,0,1,.85-.32L74,17.89l4.2-10a1.48,1.48,0,0,1,.6-.68,1.64,1.64,0,0,1,.8-.22,1.58,1.58,0,0,1,.8.22,1.38,1.38,0,0,1,.6.68l4.2,10,10.85.95a1.57,1.57,0,0,1,.85.32,1.15,1.15,0,0,1,.45.68,1.88,1.88,0,0,1,0,.82,1.38,1.38,0,0,1-.48.78l-8.2,7.15,2.45,10.6a1.43,1.43,0,0,1-.07.9,1.59,1.59,0,0,1-.53.65,1.56,1.56,0,0,1-.8.27,1.45,1.45,0,0,1-.85-.22Z" transform="translate(-6.19 -6.99)"/><path class="cls-1" d="M135.37,35.19l-9.3,5.6a1.45,1.45,0,0,1-.85.22,1.56,1.56,0,0,1-.8-.27,1.68,1.68,0,0,1-.53-.65,1.51,1.51,0,0,1-.07-.9l2.45-10.6-8.2-7.15a1.38,1.38,0,0,1-.48-.78,1.88,1.88,0,0,1,0-.82,1.24,1.24,0,0,1,.45-.68,1.6,1.6,0,0,1,.85-.32l10.85-.95,4.2-10a1.38,1.38,0,0,1,.6-.68,1.56,1.56,0,0,1,1.6,0,1.38,1.38,0,0,1,.6.68l4.2,10,10.85.95a1.6,1.6,0,0,1,.85.32,1.24,1.24,0,0,1,.45.68,1.88,1.88,0,0,1,0,.82,1.36,1.36,0,0,1-.47.78l-8.2,7.15,2.45,10.6a1.43,1.43,0,0,1-.08.9,1.49,1.49,0,0,1-1.32.92,1.45,1.45,0,0,1-.85-.22Z" transform="translate(-6.19 -6.99)"/><path class="cls-1" d="M191,35.19l-9.3,5.6a1.43,1.43,0,0,1-.85.22,1.59,1.59,0,0,1-.8-.27,1.57,1.57,0,0,1-.52-.65,1.51,1.51,0,0,1-.08-.9l2.45-10.6-8.2-7.15a1.41,1.41,0,0,1-.47-.78,2.05,2.05,0,0,1,0-.82,1.24,1.24,0,0,1,.45-.68,1.63,1.63,0,0,1,.85-.32l10.85-.95,4.2-10a1.48,1.48,0,0,1,.6-.68A1.64,1.64,0,0,1,191,7a1.58,1.58,0,0,1,.8.22,1.38,1.38,0,0,1,.6.68l4.2,10,10.85.95a1.57,1.57,0,0,1,.85.32,1.15,1.15,0,0,1,.45.68,1.88,1.88,0,0,1,0,.82,1.38,1.38,0,0,1-.48.78l-8.2,7.15,2.45,10.6a1.51,1.51,0,0,1-.07.9,1.59,1.59,0,0,1-.53.65,1.56,1.56,0,0,1-.8.27,1.45,1.45,0,0,1-.85-.22Z" transform="translate(-6.19 -6.99)"/><path class="cls-1" d="M246.6,35.19l-9.3,5.6a1.45,1.45,0,0,1-.85.22,1.56,1.56,0,0,1-.8-.27,1.59,1.59,0,0,1-.53-.65,1.51,1.51,0,0,1-.07-.9l2.45-10.6-8.2-7.15a1.38,1.38,0,0,1-.48-.78,1.88,1.88,0,0,1,0-.82,1.15,1.15,0,0,1,.45-.68,1.57,1.57,0,0,1,.85-.32L241,17.89l4.2-10a1.38,1.38,0,0,1,.6-.68,1.58,1.58,0,0,1,.8-.22,1.64,1.64,0,0,1,.8.22,1.48,1.48,0,0,1,.6.68l4.2,10,10.85.95a1.63,1.63,0,0,1,.85.32,1.24,1.24,0,0,1,.45.68,2.05,2.05,0,0,1,0,.82,1.41,1.41,0,0,1-.47.78l-8.2,7.15,2.45,10.6a1.51,1.51,0,0,1-.08.9,1.57,1.57,0,0,1-.52.65,1.59,1.59,0,0,1-.8.27,1.43,1.43,0,0,1-.85-.22Z" transform="translate(-6.19 -6.99)"/></svg>