<?xml version="1.0" encoding="utf-8"?>
<!-- Generator: Adobe Illustrator 24.0.2, SVG Export Plug-In . SVG Version: 6.00 Build 0)  -->
<svg version="1.1" id="Layer_1" xmlns="http://www.w3.org/2000/svg" xmlns:xlink="http://www.w3.org/1999/xlink" x="0px" y="0px"
	 viewBox="0 0 200 200" style="enable-background:new 0 0 200 200;" xml:space="preserve">
<style type="text/css">
	.st0{fill:#fff;}
</style>
<title>twitter-icon</title>
<path class="st0" d="M200,39c-7.5,3.3-15.4,5.4-23.6,6.3c8.5-5,15-13,18.1-22.3c-8.1,4.7-16.9,8-26.1,9.8
	c-7.8-8.2-18.6-12.8-29.9-12.8c-22.7,0-41,18.1-41,40.4c0,3.1,0.3,6.2,1.1,9.2C65.7,68,35,52.7,13.9,27.4
	c-3.6,6.1-5.6,13.2-5.6,20.3c0,13.6,6.9,26.2,18.3,33.6c-6.5-0.2-12.9-1.9-18.6-5v0.5c0,5,1,10,2.8,14.6c5.2,12.9,16.5,22.3,30.1,25
	c-3.5,0.9-7.2,1.4-10.8,1.4c-2.6,0-5.2-0.2-7.7-0.7c5.5,16.6,20.9,27.8,38.3,28.1c-14.6,11.3-32.6,17.4-51,17.3
	c-3.3,0-6.5-0.2-9.8-0.6C18.7,173.8,40.6,180,62.8,180c64.2,0,103.6-44.4,114-90.5c1.8-8,2.8-16.2,2.8-24.4c0-1.7,0-3.5-0.1-5.2
	C187.6,54.2,194.5,47.1,200,39z"/>
</svg>
