<?xml version="1.0" encoding="utf-8"?>
<!-- Generator: Adobe Illustrator 24.0.2, SVG Export Plug-In . SVG Version: 6.00 Build 0)  -->
<svg version="1.1" id="Layer_1" xmlns="http://www.w3.org/2000/svg" xmlns:xlink="http://www.w3.org/1999/xlink" x="0px" y="0px"
	 viewBox="0 0 200 200" style="enable-background:new 0 0 200 200;" xml:space="preserve">
<style type="text/css">
	.st0{fill:#fff;}
</style>
<title>youtube-icon</title>
<path class="st0" d="M198,57.9c0,0-2-14.4-7.9-20.7c-7.6-8.3-16.1-8.4-20-8.8c-28-2.1-70-2.1-70-2.1H100c0,0-42,0-70,2.1
	c-3.9,0.5-12.4,0.5-20,8.8c-6,6.3-8,20.7-8,20.7C0.8,69.1,0.1,80.4,0,91.7v15.8c0.1,11.3,0.8,22.5,2,33.8c0,0,2,14.4,7.9,20.7
	c7.6,8.3,17.6,8,22.1,8.9c16,1.6,68,2.1,68,2.1s42-0.1,70-2.2c3.9-0.5,12.4-0.5,20-8.8c6-6.3,7.9-20.7,7.9-20.7
	c1.2-11.2,1.9-22.5,2-33.8V91.7C199.9,80.4,199.2,69.1,198,57.9z M133.4,97.5l-54,29.2v-45V68.1l24.3,13.3L133.4,97.5z"/>
</svg>
